<?xml version="1.0" encoding="UTF-8" standalone="no"?>
<!-- Created with Inkscape (http://www.inkscape.org/) -->

<svg
   width="155.92136mm"
   height="57.19173mm"
   viewBox="0 0 155.92136 57.19173"
   version="1.1"
   id="svg1"
   xml:space="preserve"
   inkscape:version="1.3 (0e150ed6c4, 2023-07-21)"
   sodipodi:docname="Expresiones.svg"
   xmlns:inkscape="http://www.inkscape.org/namespaces/inkscape"
   xmlns:sodipodi="http://sodipodi.sourceforge.net/DTD/sodipodi-0.dtd"
   xmlns="http://www.w3.org/2000/svg"
   xmlns:svg="http://www.w3.org/2000/svg"><sodipodi:namedview
     id="namedview1"
     pagecolor="#ffffff"
     bordercolor="#000000"
     borderopacity="0.25"
     inkscape:showpageshadow="2"
     inkscape:pageopacity="0.0"
     inkscape:pagecheckerboard="0"
     inkscape:deskcolor="#d1d1d1"
     inkscape:document-units="mm"
     inkscape:export-bgcolor="#ffffff00"
     inkscape:zoom="0.87839505"
     inkscape:cx="527.66691"
     inkscape:cy="428.62263"
     inkscape:window-width="1920"
     inkscape:window-height="986"
     inkscape:window-x="-11"
     inkscape:window-y="-11"
     inkscape:window-maximized="1"
     inkscape:current-layer="layer1" /><defs
     id="defs1"><linearGradient
       id="swatch4"
       inkscape:swatch="solid"><stop
         style="stop-color:#ffffff;stop-opacity:1;"
         offset="0"
         id="stop4" /></linearGradient></defs><g
     inkscape:label="Capa 1"
     inkscape:groupmode="layer"
     id="layer1"
     transform="translate(188.21746,-250.07864)"><g
       id="g12"><path
         id="rect1-1-1-6"
         style="fill:#008000;stroke:#008000;stroke-width:0.709176"
         d="m -141.72603,267.63177 c 25.32829,-15.05623 34.76255,-15.77726 60.400479,0 3.27382,2.01467 5.87993,4.64681 5.87993,10.41884 0,5.77204 -2.65267,8.17602 -5.87993,10.41884 -24.886159,17.29495 -34.142609,15.11163 -60.400479,0 -3.4771,-2.0011 -5.87994,-4.6468 -5.87994,-10.41884 0,-5.77203 2.42936,-8.36766 5.87994,-10.41884 z"
         sodipodi:nodetypes="sssssss"
         inkscape:export-filename="boca U.png"
         inkscape:export-xdpi="96"
         inkscape:export-ydpi="96" /><path
         id="rect1-1-9"
         style="opacity:0;fill:#008000;stroke:#008000;stroke-width:0.940188"
         d="m -177.37072,267.87961 c 42.42082,-23.99199 87.334157,-22.22815 134.227897,0 5.19462,2.4623 10.37663,4.62799 10.37663,10.37664 0,5.74866 -5.27656,7.72405 -10.37663,10.37664 -45.4703,23.64946 -90.248837,24.81595 -134.227897,0 -5.0066,-2.82506 -10.37664,-4.62798 -10.37664,-10.37664 0,-5.74865 5.37283,-7.54663 10.37664,-10.37664 z"
         sodipodi:nodetypes="sssssss"
         inkscape:export-filename="boca abierta.png"
         inkscape:export-xdpi="96"
         inkscape:export-ydpi="96" /></g></g></svg>
