<?xml version="1.0" encoding="UTF-8" standalone="no"?>
<!-- Created with Inkscape (http://www.inkscape.org/) -->

<svg
   width="158.99748mm"
   height="57.19173mm"
   viewBox="0 0 158.99748 57.19173"
   version="1.1"
   id="svg1"
   xml:space="preserve"
   inkscape:version="1.3 (0e150ed6c4, 2023-07-21)"
   sodipodi:docname="Expresiones.svg"
   xmlns:inkscape="http://www.inkscape.org/namespaces/inkscape"
   xmlns:sodipodi="http://sodipodi.sourceforge.net/DTD/sodipodi-0.dtd"
   xmlns="http://www.w3.org/2000/svg"
   xmlns:svg="http://www.w3.org/2000/svg"><sodipodi:namedview
     id="namedview1"
     pagecolor="#ffffff"
     bordercolor="#000000"
     borderopacity="0.25"
     inkscape:showpageshadow="2"
     inkscape:pageopacity="0.0"
     inkscape:pagecheckerboard="0"
     inkscape:deskcolor="#d1d1d1"
     inkscape:document-units="mm"
     inkscape:export-bgcolor="#ffffff00"
     inkscape:zoom="0.87839505"
     inkscape:cx="527.66691"
     inkscape:cy="428.62263"
     inkscape:window-width="1920"
     inkscape:window-height="986"
     inkscape:window-x="-11"
     inkscape:window-y="-11"
     inkscape:window-maximized="1"
     inkscape:current-layer="layer1" /><defs
     id="defs1"><linearGradient
       id="swatch4"
       inkscape:swatch="solid"><stop
         style="stop-color:#ffffff;stop-opacity:1;"
         offset="0"
         id="stop4" /></linearGradient></defs><g
     inkscape:label="Capa 1"
     inkscape:groupmode="layer"
     id="layer1"
     transform="translate(185.2143,-392.52318)"><g
       id="g14"><path
         id="rect1-1-2"
         style="fill:#008000;stroke:#008000;stroke-width:1.17865"
         d="m -174.19014,405.83469 c 35.62849,16.25949 92.042106,31.68998 136.949187,0.43704 5.276027,-3.67185 10.434819,7.23274 10.434819,16.21687 0,8.98415 -4.707136,15.00086 -10.434819,16.2169 -47.526327,10.09022 -94.670767,9.29342 -136.949187,-0.43704 -5.71853,-1.31613 -10.43483,-7.23273 -10.43483,-16.21688 0,-8.98413 4.88813,-18.74819 10.43483,-16.21689 z"
         sodipodi:nodetypes="sssssss"
         inkscape:export-filename="Boca E.png"
         inkscape:export-xdpi="96"
         inkscape:export-ydpi="96" /><path
         id="rect1-1-6"
         style="opacity:0;fill:#008000;stroke:#008000;stroke-width:0.940188"
         d="m -173.02287,410.32416 c 42.42082,-23.99199 87.334165,-22.22815 134.227905,0 5.19462,2.4623 10.37663,4.62799 10.37663,10.37664 0,5.74866 -5.27656,7.72405 -10.37663,10.37664 -45.4703,23.64946 -90.248845,24.81595 -134.227905,0 -5.0066,-2.82506 -10.37664,-4.62798 -10.37664,-10.37664 0,-5.74865 5.37283,-7.54663 10.37664,-10.37664 z"
         sodipodi:nodetypes="sssssss"
         inkscape:export-filename="boca abierta.png"
         inkscape:export-xdpi="96"
         inkscape:export-ydpi="96" /></g></g></svg>
