<?xml version="1.0" encoding="UTF-8" standalone="no"?>
<!-- Created with Inkscape (http://www.inkscape.org/) -->

<svg
   width="162.63341mm"
   height="57.191696mm"
   viewBox="0 0 162.63341 57.191696"
   version="1.1"
   id="svg1"
   xml:space="preserve"
   inkscape:version="1.3 (0e150ed6c4, 2023-07-21)"
   sodipodi:docname="Expresiones.svg"
   xmlns:inkscape="http://www.inkscape.org/namespaces/inkscape"
   xmlns:sodipodi="http://sodipodi.sourceforge.net/DTD/sodipodi-0.dtd"
   xmlns="http://www.w3.org/2000/svg"
   xmlns:svg="http://www.w3.org/2000/svg"><sodipodi:namedview
     id="namedview1"
     pagecolor="#ffffff"
     bordercolor="#000000"
     borderopacity="0.25"
     inkscape:showpageshadow="2"
     inkscape:pageopacity="0.0"
     inkscape:pagecheckerboard="0"
     inkscape:deskcolor="#d1d1d1"
     inkscape:document-units="mm"
     inkscape:export-bgcolor="#ffffff00"
     inkscape:zoom="0.87839505"
     inkscape:cx="527.66691"
     inkscape:cy="428.62263"
     inkscape:window-width="1920"
     inkscape:window-height="986"
     inkscape:window-x="-11"
     inkscape:window-y="-11"
     inkscape:window-maximized="1"
     inkscape:current-layer="layer1" /><defs
     id="defs1"><linearGradient
       id="swatch4"
       inkscape:swatch="solid"><stop
         style="stop-color:#ffffff;stop-opacity:1;"
         offset="0"
         id="stop4" /></linearGradient></defs><g
     inkscape:label="Capa 1"
     inkscape:groupmode="layer"
     id="layer1"
     transform="translate(190.80521,-311.20135)"><g
       id="g13"><path
         id="rect1-1-8"
         style="fill:#008000;stroke:#008000;stroke-width:1.09228"
         d="m -179.44322,329.052 c 49.61186,5.53705 96.26119,6.70114 139.90944,0 6.56673,-1.00816 10.81584,5.9928 10.81584,13.43673 0,7.44395 -4.84791,12.46638 -10.81584,13.43672 -69.78638,11.34674 -109.0371,5.48849 -139.90944,0 -5.93181,-1.05456 -10.81586,-5.99277 -10.81586,-13.43672 0,-7.44393 3.99025,-14.19853 10.81586,-13.43673 z"
         sodipodi:nodetypes="sssssss"
         inkscape:export-filename="Boca I.png"
         inkscape:export-xdpi="96"
         inkscape:export-ydpi="96" /><path
         id="rect1-1-0"
         style="opacity:0;fill:#008000;stroke:#008000;stroke-width:0.940188"
         d="m -175.23627,329.00232 c 42.42082,-23.99199 87.334158,-22.22815 134.227898,0 5.19462,2.4623 10.37663,4.62799 10.37663,10.37664 0,5.74866 -5.27656,7.72405 -10.37663,10.37664 -45.4703,23.64946 -90.248838,24.81595 -134.227898,0 -5.0066,-2.82506 -10.37664,-4.62798 -10.37664,-10.37664 0,-5.74865 5.37283,-7.54663 10.37664,-10.37664 z"
         sodipodi:nodetypes="sssssss"
         inkscape:export-filename="boca abierta.png"
         inkscape:export-xdpi="96"
         inkscape:export-ydpi="96" /></g></g></svg>
