<?xml version="1.0" encoding="UTF-8" standalone="no"?>
<!-- Created with Inkscape (http://www.inkscape.org/) -->

<svg
   width="155.92136mm"
   height="57.19173mm"
   viewBox="0 0 155.92136 57.19173"
   version="1.1"
   id="svg1"
   xml:space="preserve"
   inkscape:version="1.3 (0e150ed6c4, 2023-07-21)"
   sodipodi:docname="Expresiones.svg"
   xmlns:inkscape="http://www.inkscape.org/namespaces/inkscape"
   xmlns:sodipodi="http://sodipodi.sourceforge.net/DTD/sodipodi-0.dtd"
   xmlns="http://www.w3.org/2000/svg"
   xmlns:svg="http://www.w3.org/2000/svg"><sodipodi:namedview
     id="namedview1"
     pagecolor="#ffffff"
     bordercolor="#000000"
     borderopacity="0.25"
     inkscape:showpageshadow="2"
     inkscape:pageopacity="0.0"
     inkscape:pagecheckerboard="0"
     inkscape:deskcolor="#d1d1d1"
     inkscape:document-units="mm"
     inkscape:export-bgcolor="#ffffff00"
     inkscape:zoom="0.58852279"
     inkscape:cx="-505.50294"
     inkscape:cy="558.1772"
     inkscape:window-width="1920"
     inkscape:window-height="986"
     inkscape:window-x="-11"
     inkscape:window-y="-11"
     inkscape:window-maximized="1"
     inkscape:current-layer="layer1" /><defs
     id="defs1"><linearGradient
       id="swatch4"
       inkscape:swatch="solid"><stop
         style="stop-color:#ffffff;stop-opacity:1;"
         offset="0"
         id="stop4" /></linearGradient></defs><g
     inkscape:label="Capa 1"
     inkscape:groupmode="layer"
     id="layer1"
     transform="translate(-28.648324,-204.34657)"><g
       id="g19"><path
         id="rect1-3"
         style="opacity:1;fill:#008000;stroke:#008000;stroke-width:0.829558"
         d="m 51.669885,224.39301 c 33.312774,-9.86336 67.932895,-10.41889 104.094445,0 4.35164,1.25381 8.04715,4.64591 8.04715,10.41685 0,5.77092 -3.67592,11.55069 -8.04715,10.41683 -30.71556,-7.96736 -63.049302,-12.6975 -104.094445,0 -4.336016,1.34137 -8.04714,-4.64591 -8.04714,-10.41683 0,-5.77094 3.701257,-9.1301 8.04714,-10.41685 z"
         sodipodi:nodetypes="sssssss" /><path
         id="rect1-1-25-7"
         style="opacity:0;fill:#008000;stroke:#008000;stroke-width:0.940188"
         d="m 39.495059,222.14756 c 42.42082,-23.99199 87.334151,-22.22815 134.227881,0 5.19462,2.4623 10.37664,4.62799 10.37664,10.37664 0,5.74866 -5.27656,7.72405 -10.37664,10.37664 -45.47029,23.64946 -90.248821,24.81595 -134.227881,0 -5.0066,-2.82506 -10.37664,-4.62798 -10.37664,-10.37664 0,-5.74865 5.37283,-7.54663 10.37664,-10.37664 z"
         sodipodi:nodetypes="sssssss"
         inkscape:export-filename="boca abierta.png"
         inkscape:export-xdpi="96"
         inkscape:export-ydpi="96" /></g></g></svg>
