<?xml version="1.0" encoding="UTF-8" standalone="no"?>
<!-- Created with Inkscape (http://www.inkscape.org/) -->

<svg
   width="184.022mm"
   height="50.96645mm"
   viewBox="0 0 184.022 50.96645"
   version="1.1"
   id="svg1"
   xml:space="preserve"
   inkscape:version="1.3 (0e150ed6c4, 2023-07-21)"
   sodipodi:docname="Expresiones.svg"
   xmlns:inkscape="http://www.inkscape.org/namespaces/inkscape"
   xmlns:sodipodi="http://sodipodi.sourceforge.net/DTD/sodipodi-0.dtd"
   xmlns="http://www.w3.org/2000/svg"
   xmlns:svg="http://www.w3.org/2000/svg"><sodipodi:namedview
     id="namedview1"
     pagecolor="#ffffff"
     bordercolor="#000000"
     borderopacity="0.25"
     inkscape:showpageshadow="2"
     inkscape:pageopacity="0.0"
     inkscape:pagecheckerboard="0"
     inkscape:deskcolor="#d1d1d1"
     inkscape:document-units="mm"
     inkscape:export-bgcolor="#ffffff00"
     inkscape:zoom="0.58852279"
     inkscape:cx="-505.50294"
     inkscape:cy="558.1772"
     inkscape:window-width="1920"
     inkscape:window-height="986"
     inkscape:window-x="-11"
     inkscape:window-y="-11"
     inkscape:window-maximized="1"
     inkscape:current-layer="layer1" /><defs
     id="defs1"><linearGradient
       id="swatch4"
       inkscape:swatch="solid"><stop
         style="stop-color:#ffffff;stop-opacity:1;"
         offset="0"
         id="stop4" /></linearGradient></defs><g
     inkscape:label="Capa 1"
     inkscape:groupmode="layer"
     id="layer1"
     transform="translate(1.322915,-89.958333)"><g
       id="g16"
       inkscape:export-filename="Ojos\ojosEnojados.svg"
       inkscape:export-xdpi="96"
       inkscape:export-ydpi="96"><g
         id="g15"
         transform="translate(200.4622,45.265154)"><g
           id="g2-2-0"
           inkscape:export-filename="Ojos\ojos cerrados.png"
           inkscape:export-xdpi="216.5885"
           inkscape:export-ydpi="216.5885"
           transform="translate(-0.76383047,-12.794622)"
           style="opacity:0"><path
             id="rect1-6-48-7"
             style="fill:#008000;stroke:#008000;stroke-width:0.642649"
             d="m -190.17455,57.809125 h 50.33545 c 5.83108,0 10.52541,4.694332 10.52541,10.525408 0,5.831075 -4.69433,10.525407 -10.52541,10.525407 h -50.33545 c -5.83108,0 -10.52541,-4.694332 -10.52541,-10.525407 0,-5.831076 4.69433,-10.525408 10.52541,-10.525408 z" /><path
             id="rect1-6-1-7-7"
             style="fill:#008000;stroke:#008000;stroke-width:0.642649"
             d="m -78.69663,58.045728 h 50.33545 c 5.83107,0 10.52541,4.694331 10.52541,10.525407 0,5.831076 -4.69434,10.525408 -10.52541,10.525408 h -50.33545 c -5.83108,0 -10.52541,-4.694332 -10.52541,-10.525408 0,-5.831076 4.69433,-10.525407 10.52541,-10.525407 z"
             inkscape:export-filename="ojos cerrados.png"
             inkscape:export-xdpi="96"
             inkscape:export-ydpi="96" /></g><g
           id="g2-2-4-3"
           inkscape:export-filename="Ojos\ojos cerrados.png"
           inkscape:export-xdpi="216.5885"
           inkscape:export-ydpi="216.5885"
           transform="translate(-0.24866166,16.241751)"
           style="opacity:0"><path
             id="rect1-6-48-9-5"
             style="fill:#008000;stroke:#008000;stroke-width:0.642649"
             d="m -190.17455,57.809125 h 50.33545 c 5.83108,0 10.52541,4.694332 10.52541,10.525408 0,5.831075 -4.69433,10.525407 -10.52541,10.525407 h -50.33545 c -5.83108,0 -10.52541,-4.694332 -10.52541,-10.525407 0,-5.831076 4.69433,-10.525408 10.52541,-10.525408 z" /><path
             id="rect1-6-1-7-8-3"
             style="fill:#008000;stroke:#008000;stroke-width:0.642649"
             d="m -78.69663,58.045728 h 50.33545 c 5.83107,0 10.52541,4.694331 10.52541,10.525407 0,5.831076 -4.69434,10.525408 -10.52541,10.525408 h -50.33545 c -5.83108,0 -10.52541,-4.694332 -10.52541,-10.525408 0,-5.831076 4.69433,-10.525407 10.52541,-10.525407 z"
             inkscape:export-filename="ojos cerrados.png"
             inkscape:export-xdpi="96"
             inkscape:export-ydpi="96" /></g></g><path
         id="rect1-6-1-3"
         style="fill:#008000;stroke:#008000;stroke-width:0.642649"
         d="m 119.67678,112.70448 47.20376,-17.477491 c 5.46828,-2.024665 11.50052,0.747631 13.52519,6.215921 2.02467,5.46828 -0.74764,11.50053 -6.21592,13.52519 l -47.20376,17.47749 c -5.46829,2.02467 -11.50053,-0.74764 -13.52519,-6.21592 -2.02467,-5.46829 0.74763,-11.50052 6.21592,-13.52519 z"
         inkscape:export-filename="ojos cerrados.png"
         inkscape:export-xdpi="96"
         inkscape:export-ydpi="96" /><path
         id="rect1-6-1-3-7"
         style="fill:#008000;stroke:#008000;stroke-width:0.642649"
         d="M 61.351252,112.68233 14.147492,95.204839 C 8.6792118,93.180174 2.6469718,95.95247 0.62230184,101.42076 -1.4023682,106.88904 1.3699418,112.92129 6.8382218,114.94595 l 47.2037602,17.47749 c 5.46829,2.02467 11.50053,-0.74764 13.52519,-6.21592 2.02467,-5.46829 -0.74763,-11.50052 -6.21592,-13.52519 z"
         inkscape:export-filename="ojos cerrados.png"
         inkscape:export-xdpi="96"
         inkscape:export-ydpi="96" /></g></g></svg>
