<?xml version="1.0" encoding="UTF-8" standalone="no"?>
<!-- Created with Inkscape (http://www.inkscape.org/) -->

<svg
   width="183.50684mm"
   height="30.882685mm"
   viewBox="0 0 183.50684 30.882685"
   version="1.1"
   id="svg1"
   xml:space="preserve"
   xmlns:inkscape="http://www.inkscape.org/namespaces/inkscape"
   xmlns:sodipodi="http://sodipodi.sourceforge.net/DTD/sodipodi-0.dtd"
   xmlns="http://www.w3.org/2000/svg"
   xmlns:svg="http://www.w3.org/2000/svg"><sodipodi:namedview
     id="namedview1"
     pagecolor="#ffffff"
     bordercolor="#000000"
     borderopacity="0.25"
     inkscape:showpageshadow="2"
     inkscape:pageopacity="0.0"
     inkscape:pagecheckerboard="0"
     inkscape:deskcolor="#d1d1d1"
     inkscape:document-units="mm"
     inkscape:export-bgcolor="#ffffff00" /><defs
     id="defs1" /><g
     inkscape:label="Capa 1"
     inkscape:groupmode="layer"
     id="layer1"
     transform="translate(201.02129,-48.535185)"><path
       id="rect1-6"
       style="fill:#008000;stroke:#008000;stroke-width:0.642649"
       d="m -190.17455,57.809125 c 17.10867,-10.566069 33.97051,-13.233524 50.33545,0 4.53411,3.666514 10.52541,4.694332 10.52541,10.525408 0,5.831075 -4.69433,10.525407 -10.52541,10.525407 h -50.33545 c -5.83108,0 -10.52541,-4.694332 -10.52541,-10.525407 0,-5.831076 5.5642,-7.461438 10.52541,-10.525408 z"
       sodipodi:nodetypes="sssssss" /><path
       id="rect1-6-1"
       style="fill:#008000;stroke:#008000;stroke-width:0.642649"
       d="m -78.69663,58.045728 h 50.33545 c 5.83107,0 10.52541,4.694331 10.52541,10.525407 0,5.831076 -4.69434,10.525408 -10.52541,10.525408 h -50.33545 c -5.83108,0 -10.52541,-4.694332 -10.52541,-10.525408 0,-5.831076 4.69433,-10.525407 10.52541,-10.525407 z"
       inkscape:export-filename="ojos cerrados.png"
       inkscape:export-xdpi="96"
       inkscape:export-ydpi="96" /></g></svg>
